HIERARCHY
ROOT hip
{
	OFFSET	0.00  0.00  0.00 
	CHANNELS 6 Xposition Yposition Zposition Xrotation Zrotation Yrotation
	JOINT waist
	{
		OFFSET	0.000000 2.191865 -0.079388
		CHANNELS 3 Xrotation Zrotation Yrotation
		JOINT abdomen
		{
			OFFSET	0.000000 2.770984 0.119082
			CHANNELS 3 Xrotation Zrotation Yrotation
			JOINT chest
			{
				OFFSET	0.000000 2.879627 -0.290598
				CHANNELS 3 Xrotation Zrotation Yrotation
				JOINT neck
				{
					OFFSET	0.000000 12.342733 -1.613748
					CHANNELS 3 Xrotation Zrotation Yrotation
					JOINT head
					{
						OFFSET	0.000000 4.485597 1.807195
						CHANNELS 3 Xrotation Zrotation Yrotation
						End Site
						{
							OFFSET 0.000000 7.191734 2.024398
						}
					}
				}
				JOINT lCollar
				{
					OFFSET	1.858774 10.237258 -1.915852
					CHANNELS 3 Zrotation Yrotation Xrotation
					JOINT lShldr
					{
						OFFSET	6.103279 0.000102 -0.038601
						CHANNELS 3 Zrotation Yrotation Xrotation
						JOINT lForeArm
						{
							OFFSET	10.574100 -0.365985 -0.655940
							CHANNELS 3 Zrotation Yrotation Xrotation
							JOINT lHand
							{
								OFFSET	13.213392 -0.641131 0.276866
								CHANNELS 3 Zrotation Yrotation Xrotation
								JOINT lThumb1
								{
									OFFSET	1.920964 -1.225712 1.722395
									CHANNELS 3 Zrotation Yrotation Xrotation
									JOINT lThumb2
									{
										OFFSET	0.248544 -0.143036 0.768265
										CHANNELS 3 Zrotation Yrotation Xrotation
										JOINT lThumb3
										{
											OFFSET	0.628484 -0.225174 0.508305
											CHANNELS 3 Zrotation Yrotation Xrotation
											End Site
											{
												OFFSET 0.831712 -0.207978 0.609962
											}
										}
									}
								}
								JOINT lIndex1
								{
									OFFSET	5.093442 -0.710319 1.829884
									CHANNELS 3 Zrotation Yrotation Xrotation
									JOINT lIndex2
									{
										OFFSET	0.889470 -0.051998 0.127073
										CHANNELS 3 Zrotation Yrotation Xrotation
										JOINT lIndex3
										{
											OFFSET	0.889570 -0.155981 0.127073
											CHANNELS 3 Zrotation Yrotation Xrotation
											End Site
											{
												OFFSET 0.797115 -0.294470 0.076252
											}
										}
									}
								}
								JOINT lMid1
								{
									OFFSET	5.154641 -0.519844 0.864111
									CHANNELS 3 Zrotation Yrotation Xrotation
									JOINT lMid2
									{
										OFFSET	0.928821 -0.051992 0.050831
										CHANNELS 3 Zrotation Yrotation Xrotation
										JOINT lMid3
										{
											OFFSET	0.984253 -0.311865 0.050831
											CHANNELS 3 Zrotation Yrotation Xrotation
											End Site
											{
												OFFSET 0.779717 -0.606438 -0.050831
											}
										}
									}
								}
								JOINT lRing1
								{
									OFFSET	4.924408 -0.754930 -0.235503
									CHANNELS 3 Zrotation Yrotation Xrotation
									JOINT lRing2
									{
										OFFSET	0.981624 -0.036924 -0.108278
										CHANNELS 3 Zrotation Yrotation Xrotation
										JOINT lRing3
										{
											OFFSET	0.805613 -0.205247 -0.041717
											CHANNELS 3 Zrotation Yrotation Xrotation
											End Site
											{
												OFFSET 0.667431 -0.470481 -0.035991
											}
										}
									}
								}
								JOINT lPinky1
								{
									OFFSET	4.535460 -0.816635 -1.006206
									CHANNELS 3 Zrotation Yrotation Xrotation
									JOINT lPinky2
									{
										OFFSET	0.690596 -0.064334 -0.168800
										CHANNELS 3 Zrotation Yrotation Xrotation
										JOINT lPinky3
										{
											OFFSET	0.598039 -0.111176 -0.071973
											CHANNELS 3 Zrotation Yrotation Xrotation
											End Site
											{
												OFFSET 0.422025 -0.290925 -0.035981
											}
										}
									}
								}
							}
						}
					}
				}
				JOINT rCollar
				{
					OFFSET	-1.858774 10.237258 -1.915852
					CHANNELS 3 Zrotation Yrotation Xrotation
					JOINT rShldr
					{
						OFFSET	-6.103279 0.000102 -0.038601
						CHANNELS 3 Zrotation Yrotation Xrotation
						JOINT rForeArm
						{
							OFFSET	-10.574100 -0.365985 -0.655940
							CHANNELS 3 Zrotation Yrotation Xrotation
							JOINT rHand
							{
								OFFSET	-13.213392 -0.641131 0.276866
								CHANNELS 3 Zrotation Yrotation Xrotation
								JOINT rIndex1
								{
									OFFSET	-5.093442 -0.710319 1.829884
									CHANNELS 3 Zrotation Yrotation Xrotation
									JOINT rIndex2
									{
										OFFSET	-0.889470 -0.051998 0.127073
										CHANNELS 3 Zrotation Yrotation Xrotation
										JOINT rIndex3
										{
											OFFSET	-0.889570 -0.155981 0.127073
											CHANNELS 3 Zrotation Yrotation Xrotation
											End Site
											{
												OFFSET -0.797115 -0.294470 0.076252
											}
										}
									}
								}
								JOINT rThumb1
								{
									OFFSET	-1.920964 -1.225712 1.722395
									CHANNELS 3 Zrotation Yrotation Xrotation
									JOINT rThumb2
									{
										OFFSET	-0.248544 -0.143036 0.768265
										CHANNELS 3 Zrotation Yrotation Xrotation
										JOINT rThumb3
										{
											OFFSET	-0.628484 -0.225174 0.508305
											CHANNELS 3 Zrotation Yrotation Xrotation
											End Site
											{
												OFFSET -0.831712 -0.207978 0.609962
											}
										}
									}
								}
								JOINT rMid1
								{
									OFFSET	-5.154641 -0.519844 0.864111
									CHANNELS 3 Zrotation Yrotation Xrotation
									JOINT rMid2
									{
										OFFSET	-0.928821 -0.051992 0.050831
										CHANNELS 3 Zrotation Yrotation Xrotation
										JOINT rMid3
										{
											OFFSET	-0.984253 -0.311865 0.050831
											CHANNELS 3 Zrotation Yrotation Xrotation
											End Site
											{
												OFFSET -0.779717 -0.606438 -0.050831
											}
										}
									}
								}
								JOINT rRing1
								{
									OFFSET	-4.924408 -0.754930 -0.235503
									CHANNELS 3 Zrotation Yrotation Xrotation
									JOINT rRing2
									{
										OFFSET	-0.981624 -0.036924 -0.108278
										CHANNELS 3 Zrotation Yrotation Xrotation
										JOINT rRing3
										{
											OFFSET	-0.805613 -0.205247 -0.041717
											CHANNELS 3 Zrotation Yrotation Xrotation
											End Site
											{
												OFFSET -0.667431 -0.470481 -0.035991
											}
										}
									}
								}
								JOINT rPinky1
								{
									OFFSET	-4.535460 -0.816635 -1.006206
									CHANNELS 3 Zrotation Yrotation Xrotation
									JOINT rPinky2
									{
										OFFSET	-0.690596 -0.064334 -0.168800
										CHANNELS 3 Zrotation Yrotation Xrotation
										JOINT rPinky3
										{
											OFFSET	-0.598039 -0.111176 -0.071973
											CHANNELS 3 Zrotation Yrotation Xrotation
											End Site
											{
												OFFSET -0.422025 -0.290925 -0.035981
											}
										}
									}
								}
							}
						}
					}
				}
			}
		}
	}
	JOINT lThigh
	{
		OFFSET	5.761895 -0.730553 0.000101
		CHANNELS 3 Xrotation Zrotation Yrotation
		JOINT lShin
		{
			OFFSET	-1.171020 -18.459274 1.627449
			CHANNELS 3 Xrotation Zrotation Yrotation
			JOINT lFoot
			{
				OFFSET	-0.883715 -16.872776 -3.357785
				CHANNELS 3 Xrotation Zrotation Yrotation
				JOINT lToe
				{
					OFFSET	1.287613 -2.778491 2.836049
					CHANNELS 3 Xrotation Yrotation Zrotation
					End Site
					{
						OFFSET 1.362641 -0.436631 3.828194
					}
				}
			}
		}
	}
	JOINT rThigh
	{
		OFFSET	-5.761895 -0.730553 0.000101
		CHANNELS 3 Xrotation Zrotation Yrotation
		JOINT rShin
		{
			OFFSET	1.171020 -18.459274 1.627449
			CHANNELS 3 Xrotation Zrotation Yrotation
			JOINT rFoot
			{
				OFFSET	0.883715 -16.872776 -3.357785
				CHANNELS 3 Xrotation Zrotation Yrotation
				JOINT rToe
				{
					OFFSET	-1.287613 -2.778491 2.836049
					CHANNELS 3 Xrotation Yrotation Zrotation
					End Site
					{
						OFFSET -1.362641 -0.436631 3.828194
					}
				}
			}
		}
	}
}
MOTION
Frames:     4
Frame Time: 0.033333
-0.012647 39.075241 3.332071 -0.178528 -0.799216 4.234284 -0.126950 -0.123763 -0.151116 -0.942331 1.517067 -3.134821 0.062963 2.329378 -8.853689 0.507811 -0.018115 0.007302 4.962589 0.105662 9.064931 -1.686956 -0.010262 -0.400918 -74.752502 -9.878646 0.790524 0.078295 -17.351625 7.693086 23.478523 -9.174290 -0.895565 -1.138349 14.872857 16.409939 0.922729 7.982076 2.298450 1.143080 12.883307 2.741511 -20.684204 5.117123 3.210417 -22.190340 0.324221 3.083870 -22.322487 0.027448 2.007340 -21.155315 -0.573979 1.085965 -22.385185 0.037740 1.095536 -22.381083 0.158112 -1.210669 -20.887920 -5.818159 -1.905115 -22.382854 -0.086922 -1.132797 -22.389406 0.110987 -1.034041 -19.361692 -10.332861 -6.696849 -22.252283 -0.278192 -2.620577 -22.354927 0.166944 -1.637562 -0.010904 -0.009767 -0.185543 78.042145 -8.195708 -1.294451 -0.075763 14.560086 11.268828 -40.658203 8.692863 -1.524566 18.763117 -5.060500 2.947313 25.715698 -0.505628 3.556705 32.550667 -0.321841 2.899639 -6.853165 -20.699158 13.915245 -0.760142 -6.648059 1.901676 -1.522521 -15.800728 3.422143 11.290894 0.679317 0.564356 37.110874 -0.316852 1.780612 19.114019 -0.181267 -1.025260 20.339081 5.790285 -1.855887 36.396065 0.336391 -1.788956 15.940660 -0.136791 -0.728652 32.759342 11.584830 -9.922853 19.150703 0.160807 -2.267643 17.630405 -0.201825 -1.283720 13.440119 -1.768995 3.097745 15.632857 -0.040541 -0.830347 22.676449 5.322558 3.655633 -36.292076 -1.335631 2.742635 -20.471016 1.232320 -7.218138 5.974255 0.204119 0.197501 -4.741835 -1.349694 -7.438565 -9.285562 -2.814854 5.689649 
-0.012647 38.781147 3.332071 0.065290 -1.372216 4.595085 -0.234373 -0.123345 -0.141359 -1.253808 2.569972 -3.455576 0.330182 1.506767 -7.884096 0.253860 0.169919 -0.205368 4.810617 0.161888 7.337238 -1.434410 -0.010147 -0.184522 -75.358727 -9.216753 0.671526 0.124210 -20.352819 7.466570 24.578270 -9.150988 -0.939455 -1.138349 14.872857 16.409939 0.922729 7.982076 2.298450 1.143080 12.883307 2.741511 -20.540937 5.110415 3.191057 -22.026077 0.317383 3.061696 -22.157164 0.024311 1.992605 -21.008976 -0.576628 1.078401 -22.219381 0.035826 1.087493 -22.215284 0.158662 -1.201679 -20.743326 -5.813393 -1.891716 -22.217060 -0.084727 -1.124709 -22.223549 0.111623 -1.026410 -19.225643 -10.323840 -6.662522 -22.087515 -0.272488 -2.601869 -22.189329 0.168033 -1.625432 0.096755 -0.009748 -0.147159 78.512962 -7.464227 -3.319745 -0.069577 13.364862 3.988675 -39.373775 8.733160 -1.481234 19.068758 -5.073563 2.989833 26.063404 -0.523166 3.602616 32.900623 -0.334043 2.929041 -6.853165 -20.699158 13.915245 -0.760142 -6.648059 1.901676 -1.522521 -15.800728 3.422143 11.603129 0.676450 0.581159 37.452164 -0.324921 1.795531 19.455370 -0.181125 -1.043858 20.647551 5.800303 -1.882421 36.737339 0.344898 -1.804032 16.291883 -0.137210 -0.744920 33.049236 11.620574 -9.989385 19.499693 0.170922 -2.307897 17.981108 -0.201537 -1.309566 14.023783 -0.979071 3.219167 19.162287 0.023800 -1.023806 25.900652 3.327995 6.868135 -37.370865 -1.582693 3.037529 -19.957855 3.064352 -6.138367 6.999477 0.249393 0.231092 5.523215 -4.588911 -7.696067 -8.648854 -2.861481 5.906575 
-0.012647 38.665810 3.332071 0.700166 -1.744130 4.637204 -0.361326 -0.113171 -0.132019 -1.789456 3.418240 -3.049120 0.630782 0.512686 -6.698215 -0.000225 0.357954 -0.418037 4.515624 0.216253 5.609044 -1.111658 -0.010060 -0.260670 -76.106979 -8.372076 0.631354 0.145541 -21.547466 7.282481 25.982273 -9.120008 -0.996391 -1.138349 14.872857 16.409939 0.922729 7.982076 2.298450 1.143080 12.883307 2.741511 -20.359470 5.101986 3.166510 -21.823166 0.309025 3.034278 -21.952938 0.020495 1.974391 -20.823614 -0.579956 1.068810 -22.014565 0.033494 1.077549 -22.010479 0.159305 -1.190571 -20.560179 -5.807400 -1.875977 -22.012259 -0.082049 -1.114709 -22.018673 0.112379 -1.016981 -19.053314 -10.312536 -6.617728 -21.883974 -0.265516 -2.578738 -21.984753 0.169331 -1.610445 0.253062 -0.009718 -0.138379 78.998260 -6.677248 -6.496319 -0.055461 11.019294 -0.609375 -37.726334 8.783439 -1.426279 19.441256 -5.089786 3.041372 26.488358 -0.544979 3.658476 33.328327 -0.349199 2.964935 -6.853165 -20.699158 13.915245 -0.760142 -6.648059 1.901676 -1.522521 -15.800728 3.422143 11.983661 0.672832 0.601614 37.881210 -0.335192 1.814218 19.894249 -0.180781 -1.067769 21.023499 5.812707 -1.915672 37.166351 0.355720 -1.822911 16.721163 -0.137587 -0.764806 33.402534 11.664585 -10.071330 19.926228 0.183617 -2.356975 18.409744 -0.200971 -1.341152 12.173740 -0.507887 3.059071 25.220179 0.046435 -1.309610 24.374395 1.782582 9.312056 -34.580086 -0.955596 2.266122 -20.574867 4.295874 -7.026680 10.589274 0.239472 0.415405 8.355497 -7.139031 -6.178356 -5.321895 -3.065594 7.047447 
-0.012647 38.716541 3.332071 1.833684 -1.646402 4.092007 -0.498046 -0.102579 -0.112921 -2.351703 3.147397 -1.111824 1.089144 0.016667 -5.312501 0.000048 0.202221 -0.334173 4.097203 0.269192 3.880460 -0.767651 -0.010010 -0.610130 -76.885117 -7.430407 0.522496 0.078705 -20.566690 13.091238 27.553009 -9.083735 -1.059000 -1.138349 14.872857 16.409939 0.922729 7.982076 2.298450 1.143080 12.883307 2.741511 -20.158892 5.092765 3.138477 -21.600922 0.299982 3.004214 -21.729261 0.016391 1.954421 -20.618731 -0.583598 1.058197 -21.790239 0.030981 1.066649 -21.786167 0.159963 -1.178403 -20.357752 -5.800837 -1.858560 -21.787954 -0.079156 -1.103745 -21.794285 0.113168 -1.006650 -18.862841 -10.300186 -6.570295 -21.661045 -0.257974 -2.553332 -21.760704 0.170691 -1.594024 0.424948 -0.009978 -2.366068 79.552589 -5.795954 -10.055078 -0.037272 8.971316 -3.031331 -35.853008 8.838640 -1.360609 19.851952 -5.108058 3.097986 26.942265 -0.568735 3.718056 33.794907 -0.366039 3.003898 -6.853165 -20.699158 13.915245 -0.760142 -6.648059 1.901676 -1.522521 -15.800728 3.422143 12.403222 0.668685 0.624140 38.349266 -0.346556 1.834574 20.362381 -0.180212 -1.093269 21.438005 5.826631 -1.951149 37.634373 0.367687 -1.843414 17.189459 -0.137828 -0.786502 33.792065 11.713684 -10.160764 20.391525 0.197882 -2.410404 18.877344 -0.200084 -1.375603 9.213243 -0.655336 3.870754 29.816448 0.050974 -1.502532 23.094234 0.689815 10.468888 -31.018513 -0.213458 1.242628 -20.912775 4.457427 -6.015291 13.174131 0.215612 0.549463 5.138542 -7.029111 -6.591443 -0.132027 -3.250877 8.842842 
